#!OML:ASF F:\VICON\USERDATA\INSTALL\rory3\rory3.ASF
:FULLY-SPECIFIED
:DEGREES
310
root 4.57139 17.0856 3.09093 15.4097 -7.36526 -7.84744
lowerback -3.34192 0.0306101 5.58237
upperback -2.52806 -0.0975906 1.01839
thorax -0.738426 -0.115677 -2.08297
lowerneck -11.275 0.846171 -1.00495
upperneck 38.7526 0.704725 1.84237
head 15.4954 0.334355 1.06238
rclavicle -2.38542e-014 1.59028e-014
rhumerus -19.8056 14.0367 -26.5478
rradius 85.9678
rwrist -12.5791
rhand -8.71264 -39.9459
rfingers 7.12502
rthumb 17.223 -69.2027
lclavicle -2.38542e-014 1.59028e-014
lhumerus 3.69648 -1.53466 6.8324
lradius 28.6984
lwrist 14.9052
lhand -24.5638 -28.31
lfingers 7.12502
lthumb 1.93287 1.66099
rfemur -32.9705 0.514214 8.74624
rtibia 62.9941
rfoot 29.6001 -15.9379
rtoes -6.86099
lfemur -32.0253 -0.2418 -20.8882
ltibia 40.0085
lfoot -20.4459 5.82759
ltoes 15.4392
311
root 4.57542 17.0866 3.09808 15.1616 -7.13429 -7.71871
lowerback -3.23197 -0.0588647 5.56576
upperback -2.45463 -0.211453 0.984166
thorax -0.732975 -0.171064 -2.11169
lowerneck -11.1785 0.827395 -0.987682
upperneck 38.734 0.702927 1.75857
head 15.4636 0.324706 1.02194
rclavicle 1.35174e-014 2.38542e-015
rhumerus -20.0735 14.1575 -26.7
rradius 85.8159
rwrist -12.5664
rhand -8.93338 -41.0548
rfingers 7.12502
rthumb 17.0106 -70.33
lclavicle 1.35174e-014 2.38542e-015
lhumerus 3.61679 -1.54575 7.01719
lradius 28.5607
lwrist 14.6436
lhand -24.7167 -28.319
lfingers 7.12502
lthumb 1.78521 1.65326
rfemur -33.2472 0.0419213 8.84697
rtibia 64.0078
rfoot 29.7635 -15.4172
rtoes -6.54522
lfemur -31.7485 -0.307725 -21.0171
ltibia 39.9938
lfoot -20.5086 5.6845
ltoes 15.461
312
root 4.57801 17.0697 3.07524 15.6038 -7.6969 -7.75732
lowerback -3.28873 0.124586 5.44089
upperback -2.66524 0.0399044 0.985207
thorax -0.898602 -0.0517809 -2.0343
lowerneck -11.1717 0.829974 -1.01739
upperneck 38.8265 0.72565 1.72735
head 15.5084 0.324668 1.01888
rclavicle -3.97569e-016 3.18055e-015
rhumerus -20.3417 14.3656 -26.8001
rradius 85.6319
rwrist -12.5789
rhand -8.60867 -41.6359
rfingers 7.12502
rthumb 17.3231 -70.8839
lclavicle -3.97569e-016 3.18055e-015
lhumerus 3.42393 -1.50287 7.22799
lradius 28.5196
lwrist 14.4231
lhand -24.5375 -28.2967
lfingers 7.12502
lthumb 1.95825 1.67408
rfemur -34.8355 0.0985391 8.86761
rtibia 65.141
rfoot 30.5173 -14.0532
rtoes -7.44269
lfemur -32.3391 0.0747463 -21.1227
ltibia 40.0117
lfoot -20.4155 5.78936
ltoes 15.6099
313
root 4.57825 17.0662 3.06377 15.5043 -7.70658 -7.676
lowerback -2.98793 0.0598061 5.2845
upperback -2.655 -0.0228417 0.99051
thorax -1.06028 -0.084444 -1.9427
lowerneck -11.3501 0.887738 -0.902966
upperneck 38.8975 0.838428 1.58006
head 15.5871 0.368205 0.955932
rclavicle 3.02153e-014 -1.03368e-014
rhumerus -20.4491 14.5095 -26.9875
rradius 85.4882
rwrist -12.554
rhand -8.86223 -41.7051
rfingers 7.12502
rthumb 17.0791 -70.9743
lclavicle 3.02153e-014 -1.03368e-014
lhumerus 3.15293 -1.47519 7.32877
lradius 28.4853
lwrist 14.4167
lhand -24.2657 -28.2339
lfingers 7.12502
lthumb 2.22079 1.73431
rfemur -35.4869 -0.129895 8.96613
rtibia 66.1726
rfoot 30.6967 -14.2298
rtoes -6.25419
lfemur -32.3291 -0.0288824 -21.1861
ltibia 40.0586
lfoot -20.3968 5.79375
ltoes 15.6767
314
root 4.58273 17.0788 3.07462 14.8496 -7.10369 -7.4722
lowerback -2.49568 -0.226779 5.24385
upperback -2.4323 -0.379226 0.978475
thorax -1.13175 -0.259689 -1.9373
lowerneck -11.5189 0.935704 -0.793325
upperneck 38.9187 0.938029 1.43261
head 15.6389 0.405791 0.890802
rclavicle -1.83876e-014 -9.54166e-015
rhumerus -20.3545 14.509 -27.1884
rradius 85.1352
rwrist -12.4397
rhand -8.86088 -41.7455
rfingers 7.12502
rthumb 17.0804 -71.0147
lclavicle -1.83876e-014 -9.54166e-015
lhumerus 2.73067 -1.869 7.30115
lradius 28.6518
lwrist 14.7822
lhand -24.318 -28.4411
lfingers 7.12502
lthumb 2.17027 1.52757
rfemur -35.0954 -0.758208 9.11688
rtibia 67.0615
rfoot 30.4335 -14.6282
rtoes -6.12868
lfemur -31.5729 -0.621641 -21.2605
ltibia 40.0113
lfoot -20.4517 5.74568
ltoes 15.2948
315
root 4.58845 17.0722 3.07033 15.322 -7.73849 -7.75002
lowerback -2.76327 0.0203203 5.39636
upperback -2.61017 -0.0637764 1.02136
thorax -1.14342 -0.107499 -1.974
lowerneck -11.511 0.928179 -0.812772
upperneck 39.0234 0.936848 1.41687
head 15.6906 0.399135 0.8887
rclavicle -1.58034e-014 3.18055e-015
rhumerus -20.3787 14.5612 -27.3352
rradius 84.7035
rwrist -12.2718
rhand -8.61143 -41.948
rfingers 7.12502
rthumb 17.3205 -71.1962
lclavicle -1.58034e-014 3.18055e-015
lhumerus 2.45163 -2.02752 7.47438
lradius 28.6961
lwrist 14.6968
lhand -24.643 -28.5061
lfingers 7.12502
lthumb 1.85632 1.46558
rfemur -36.5221 -0.440007 9.3839
rtibia 68.0361
rfoot 30.9446 -13.7656
rtoes -8.17326
lfemur -32.012 -0.329726 -21.133
ltibia 39.9855
lfoot -20.4222 6.25583
ltoes 14.0104
316
root 4.58695 17.0705 3.0678 14.9697 -7.78419 -7.30299
lowerback -2.37938 -0.012045 4.88723
upperback -2.60766 -0.0745783 0.920795
thorax -1.35382 -0.110348 -1.79247
lowerneck -11.4031 0.910317 -0.825893
upperneck 39.0793 0.922479 1.39115
head 15.6935 0.387283 0.877482
rclavicle 7.70291e-015 -3.77691e-014
rhumerus -20.6123 14.6554 -27.4842
rradius 84.4216
rwrist -12.1015
rhand -8.66298 -41.4677
rfingers 7.12502
rthumb 17.2708 -70.7203
lclavicle 7.70291e-015 -3.77691e-014
lhumerus 2.49261 -1.76296 7.83215
lradius 28.4333
lwrist 14.0551
lhand -24.9335 -28.0248
lfingers 7.12502
lthumb 1.57578 1.94909
rfemur -36.8815 -0.630248 9.06888
rtibia 69.0174
rfoot 31.037 -13.7704
rtoes -7.73721
lfemur -31.6447 -0.628693 -21.5948
ltibia 39.9038
lfoot -20.3856 6.66187
ltoes 11.8813
317
root 4.58662 17.0718 3.06931 14.7505 -7.56206 -7.2294
lowerback -2.24986 -0.0871643 4.8404
upperback -2.52636 -0.168804 0.920869
thorax -1.34855 -0.155189 -1.76713
lowerneck -11.4749 0.90481 -0.773422
upperneck 39.1472 0.927418 1.32085
head 15.7469 0.38724 0.840254
rclavicle -3.98066e-014 3.97569e-016
rhumerus -20.9268 14.7467 -27.6322
rradius 84.2958
rwrist -11.9266
rhand -8.89267 -40.7956
rfingers 7.12502
rthumb 17.0498 -70.0674
lclavicle -3.98066e-014 3.97569e-016
lhumerus 2.41544 -1.68286 8.0832
lradius 28.4031
lwrist 13.8181
lhand -25.0906 -28.0005
lfingers 7.12502
lthumb 1.4241 1.97447
rfemur -37.2368 -0.952293 9.26529
rtibia 69.9735
rfoot 31.1742 -13.656
rtoes -7.33137
lfemur -31.436 -1.05622 -21.5871
ltibia 39.9365
lfoot -20.3235 6.87793
ltoes 15.2841
318
root 4.5855 17.0662 3.06404 14.7201 -7.51465 -7.38602
lowerback -2.22218 -0.0834747 4.96457
upperback -2.47502 -0.164979 0.9721
thorax -1.31159 -0.153125 -1.7839
lowerneck -11.6582 0.884116 -0.730749
upperneck 39.3074 0.896024 1.29055
head 15.8755 0.375004 0.818233
rclavicle 2.5842e-014 -2.18663e-014
rhumerus -21.3806 14.971 -27.7314
rradius 84.3996
rwrist -11.7205
rhand -9.15732 -40.2713
rfingers 7.12502
rthumb 16.795 -69.5649
lclavicle 2.5842e-014 -2.18663e-014
lhumerus 2.18056 -1.87707 8.24712
lradius 28.5663
lwrist 14.1616
lhand -25.4391 -28.266
lfingers 7.12502
lthumb 1.08748 1.71094
rfemur -37.9067 -1.0237 9.68313
rtibia 70.9381
rfoot 31.6417 -12.6405
rtoes -8.49892
lfemur -31.4208 -1.31621 -21.3621
ltibia 39.9539
lfoot -20.2816 7.10365
ltoes 11.5319
319
root 4.58722 17.0648 3.06453 14.6287 -7.49476 -7.43269
lowerback -2.20905 -0.0949215 4.9877
upperback -2.3779 -0.182889 1.00094
thorax -1.22005 -0.158528 -1.76764
lowerneck -11.7915 0.869065 -0.745968
upperneck 39.3644 0.876128 1.29537
head 15.9379 0.364601 0.821758
rclavicle 4.47266e-015 -2.50469e-014
rhumerus -21.755 15.2034 -27.8098
rradius 84.575
rwrist -11.5456
rhand -9.27793 -39.8537
rfingers 7.12502
rthumb 16.6789 -69.1571
lclavicle 4.47266e-015 -2.50469e-014
lhumerus 2.00321 -1.80549 8.4626
lradius 28.5039
lwrist 14.1378
lhand -25.6804 -28.1392
lfingers 7.12502
lthumb 0.854421 1.83879
rfemur -38.432 -1.10617 9.9464
rtibia 71.8498
rfoot 31.7135 -12.3513
rtoes -8.44404
lfemur -31.3433 -1.54901 -21.2849
ltibia 40.0418
lfoot -20.3754 7.29861
ltoes 12.8701
320
root 4.58904 17.0687 3.06077 14.5902 -7.48385 -7.39274
lowerback -2.16169 -0.13348 4.89821
upperback -2.30632 -0.23265 1.01344
thorax -1.17536 -0.179827 -1.70539
lowerneck -11.8973 0.891734 -0.709727
upperneck 39.3258 0.917574 1.25217
head 15.9438 0.381603 0.803695
rclavicle 8.74653e-015 -5.1684e-015
rhumerus -21.9352 15.2295 -27.9992
rradius 84.5622
rwrist -11.3283
rhand -9.34401 -40.2768
rfingers 7.12502
rthumb 16.6153 -69.5856
lclavicle 8.74653e-015 -5.1684e-015
lhumerus 1.80438 -1.52117 8.67829
lradius 28.4227
lwrist 13.7782
lhand -25.6279 -27.883
lfingers 7.12502
lthumb 0.90511 2.09479
rfemur -39.0551 -1.31037 10.1303
rtibia 72.7752
rfoot 31.6639 -12.4019
rtoes -8.09472
lfemur -31.4072 -1.83652 -21.2641
ltibia 40.1494
lfoot -20.4268 7.32484
ltoes 13.4898
